<mxfile host="app.diagrams.net" modified="2023-12-01T19:13:42.336Z" agent="Mozilla/5.0 (Macintosh; Intel Mac OS X 10_15_7) AppleWebKit/537.36 (KHTML, like Gecko) Chrome/119.0.0.0 Safari/537.36" etag="bUpKf8KxAFdxPtZShruf" version="22.1.5" type="github">
  <diagram name="Page-1" id="UZQ5byCJ-S6CaqRD8Hsg">
    <mxGraphModel dx="2284" dy="1864" grid="1" gridSize="10" guides="1" tooltips="1" connect="1" arrows="1" fold="1" page="1" pageScale="1" pageWidth="850" pageHeight="1100" math="0" shadow="0">
      <root>
        <mxCell id="0" />
        <mxCell id="1" parent="0" />
        <mxCell id="sKK7W5GRqktyaH6itG1t-36" style="orthogonalLoop=1;jettySize=auto;html=1;exitX=0.5;exitY=0;exitDx=0;exitDy=0;entryX=0.5;entryY=1;entryDx=0;entryDy=0;curved=1;startArrow=baseDash;startFill=0;endArrow=ERone;endFill=0;" edge="1" parent="1" source="2" target="sKK7W5GRqktyaH6itG1t-29">
          <mxGeometry relative="1" as="geometry" />
        </mxCell>
        <mxCell id="sKK7W5GRqktyaH6itG1t-37" value="is a" style="edgeLabel;html=1;align=center;verticalAlign=middle;resizable=0;points=[];" vertex="1" connectable="0" parent="sKK7W5GRqktyaH6itG1t-36">
          <mxGeometry x="-0.02" relative="1" as="geometry">
            <mxPoint as="offset" />
          </mxGeometry>
        </mxCell>
        <mxCell id="sKK7W5GRqktyaH6itG1t-51" style="orthogonalLoop=1;jettySize=auto;html=1;exitX=0;exitY=0.25;exitDx=0;exitDy=0;entryX=0.75;entryY=1;entryDx=0;entryDy=0;curved=1;startArrow=ERmany;startFill=0;endArrow=ERone;endFill=0;" edge="1" parent="1" source="2" target="sKK7W5GRqktyaH6itG1t-28">
          <mxGeometry relative="1" as="geometry" />
        </mxCell>
        <mxCell id="sKK7W5GRqktyaH6itG1t-52" value="has" style="edgeLabel;html=1;align=center;verticalAlign=middle;resizable=0;points=[];" vertex="1" connectable="0" parent="sKK7W5GRqktyaH6itG1t-51">
          <mxGeometry x="-0.0018" y="1" relative="1" as="geometry">
            <mxPoint y="-1" as="offset" />
          </mxGeometry>
        </mxCell>
        <mxCell id="2" value="DEALER" style="shape=table;startSize=75;container=1;collapsible=0;childLayout=tableLayout;fixedRows=1;rowLines=1;fontStyle=1;align=center;resizeLast=1;" parent="1" vertex="1">
          <mxGeometry x="-160" y="60" width="100" height="75" as="geometry" />
        </mxCell>
        <mxCell id="sKK7W5GRqktyaH6itG1t-40" style="orthogonalLoop=1;jettySize=auto;html=1;exitX=0.5;exitY=0;exitDx=0;exitDy=0;entryX=0.75;entryY=1;entryDx=0;entryDy=0;curved=1;startArrow=baseDash;startFill=0;endArrow=ERone;endFill=0;" edge="1" parent="1" source="3" target="sKK7W5GRqktyaH6itG1t-29">
          <mxGeometry relative="1" as="geometry">
            <Array as="points">
              <mxPoint x="200" y="-60" />
            </Array>
          </mxGeometry>
        </mxCell>
        <mxCell id="sKK7W5GRqktyaH6itG1t-41" value="is a" style="edgeLabel;html=1;align=center;verticalAlign=middle;resizable=0;points=[];" vertex="1" connectable="0" parent="sKK7W5GRqktyaH6itG1t-40">
          <mxGeometry y="-1" relative="1" as="geometry">
            <mxPoint as="offset" />
          </mxGeometry>
        </mxCell>
        <mxCell id="sKK7W5GRqktyaH6itG1t-53" style="orthogonalLoop=1;jettySize=auto;html=1;exitX=0;exitY=0.25;exitDx=0;exitDy=0;entryX=1;entryY=0.75;entryDx=0;entryDy=0;curved=1;startArrow=ERmany;startFill=0;endArrow=ERone;endFill=0;" edge="1" parent="1" source="3" target="sKK7W5GRqktyaH6itG1t-28">
          <mxGeometry relative="1" as="geometry" />
        </mxCell>
        <mxCell id="sKK7W5GRqktyaH6itG1t-54" value="has" style="edgeLabel;html=1;align=center;verticalAlign=middle;resizable=0;points=[];" vertex="1" connectable="0" parent="sKK7W5GRqktyaH6itG1t-53">
          <mxGeometry x="0.0025" y="2" relative="1" as="geometry">
            <mxPoint as="offset" />
          </mxGeometry>
        </mxCell>
        <mxCell id="3" value="PLAYER" style="shape=table;startSize=75;container=1;collapsible=0;childLayout=tableLayout;fixedRows=1;rowLines=1;fontStyle=1;align=center;resizeLast=1;" parent="1" vertex="1">
          <mxGeometry x="240" y="10" width="100" height="75" as="geometry" />
        </mxCell>
        <mxCell id="4" value="HAND" style="shape=table;startSize=75;container=1;collapsible=0;childLayout=tableLayout;fixedRows=1;rowLines=1;fontStyle=1;align=center;resizeLast=1;" parent="1" vertex="1">
          <mxGeometry x="20" y="370" width="100" height="75" as="geometry" />
        </mxCell>
        <mxCell id="sKK7W5GRqktyaH6itG1t-84" style="orthogonalLoop=1;jettySize=auto;html=1;exitX=0.25;exitY=0;exitDx=0;exitDy=0;entryX=1;entryY=0.5;entryDx=0;entryDy=0;curved=1;startArrow=ERmany;startFill=0;endArrow=ERone;endFill=0;" edge="1" parent="1" source="5" target="sKK7W5GRqktyaH6itG1t-30">
          <mxGeometry relative="1" as="geometry">
            <Array as="points">
              <mxPoint x="-120" y="340" />
            </Array>
          </mxGeometry>
        </mxCell>
        <mxCell id="sKK7W5GRqktyaH6itG1t-85" value="has" style="edgeLabel;html=1;align=center;verticalAlign=middle;resizable=0;points=[];" vertex="1" connectable="0" parent="sKK7W5GRqktyaH6itG1t-84">
          <mxGeometry x="0.0146" y="9" relative="1" as="geometry">
            <mxPoint as="offset" />
          </mxGeometry>
        </mxCell>
        <mxCell id="5" value="CARD" style="shape=table;startSize=75;container=1;collapsible=0;childLayout=tableLayout;fixedRows=1;rowLines=1;fontStyle=1;align=center;resizeLast=1;" parent="1" vertex="1">
          <mxGeometry x="20" y="545" width="100" height="75" as="geometry" />
        </mxCell>
        <mxCell id="7" value="has" style="startArrow=ERone;startSize=6;;endArrow=ERmany;endSize=6;;exitX=0.75;exitY=1;entryX=0.17857142857142855;entryY=0;exitDx=0;exitDy=0;startFill=0;" parent="1" source="2" target="4" edge="1">
          <mxGeometry relative="1" as="geometry" />
        </mxCell>
        <mxCell id="8" value="has" style="curved=1;startArrow=ERone;startSize=6;;endArrow=ERmany;endSize=6;;exitX=0.5;exitY=1;entryX=0.8214285714285714;entryY=0;startFill=0;" parent="1" source="3" target="4" edge="1">
          <mxGeometry relative="1" as="geometry">
            <Array as="points">
              <mxPoint x="145" y="320" />
            </Array>
          </mxGeometry>
        </mxCell>
        <mxCell id="9" value="has" style="curved=1;startArrow=ERone;startSize=6;;endArrow=ERmany;endSize=6;;exitX=0.5;exitY=1;entryX=0.5;entryY=0;startFill=0;" parent="1" source="4" target="5" edge="1">
          <mxGeometry relative="1" as="geometry">
            <Array as="points" />
          </mxGeometry>
        </mxCell>
        <mxCell id="sKK7W5GRqktyaH6itG1t-42" style="orthogonalLoop=1;jettySize=auto;html=1;exitX=0.5;exitY=0;exitDx=0;exitDy=0;entryX=0.25;entryY=1;entryDx=0;entryDy=0;curved=1;" edge="1" parent="1" source="sKK7W5GRqktyaH6itG1t-12" target="sKK7W5GRqktyaH6itG1t-31">
          <mxGeometry relative="1" as="geometry" />
        </mxCell>
        <mxCell id="sKK7W5GRqktyaH6itG1t-43" value="has" style="edgeLabel;html=1;align=center;verticalAlign=middle;resizable=0;points=[];" vertex="1" connectable="0" parent="sKK7W5GRqktyaH6itG1t-42">
          <mxGeometry x="-0.1745" y="-1" relative="1" as="geometry">
            <mxPoint as="offset" />
          </mxGeometry>
        </mxCell>
        <mxCell id="sKK7W5GRqktyaH6itG1t-59" style="edgeStyle=orthogonalEdgeStyle;rounded=0;orthogonalLoop=1;jettySize=auto;html=1;exitX=0;exitY=0.5;exitDx=0;exitDy=0;entryX=0;entryY=0.5;entryDx=0;entryDy=0;startArrow=ERmany;startFill=0;endArrow=ERone;endFill=0;" edge="1" parent="1" source="sKK7W5GRqktyaH6itG1t-12" target="sKK7W5GRqktyaH6itG1t-55">
          <mxGeometry relative="1" as="geometry" />
        </mxCell>
        <mxCell id="sKK7W5GRqktyaH6itG1t-60" value="has" style="edgeLabel;html=1;align=center;verticalAlign=middle;resizable=0;points=[];" vertex="1" connectable="0" parent="sKK7W5GRqktyaH6itG1t-59">
          <mxGeometry x="-0.2146" relative="1" as="geometry">
            <mxPoint as="offset" />
          </mxGeometry>
        </mxCell>
        <mxCell id="sKK7W5GRqktyaH6itG1t-12" value="&lt;b&gt;CHIP&lt;/b&gt;" style="rounded=0;whiteSpace=wrap;html=1;" vertex="1" parent="1">
          <mxGeometry x="-680" y="250" width="120" height="60" as="geometry" />
        </mxCell>
        <mxCell id="sKK7W5GRqktyaH6itG1t-66" value="" style="edgeStyle=orthogonalEdgeStyle;rounded=0;orthogonalLoop=1;jettySize=auto;html=1;exitX=0.25;exitY=0;exitDx=0;exitDy=0;entryX=1;entryY=0.5;entryDx=0;entryDy=0;metaEdit=0;endArrow=ERone;endFill=0;startArrow=ERmany;startFill=0;" edge="1" parent="1" source="sKK7W5GRqktyaH6itG1t-13" target="sKK7W5GRqktyaH6itG1t-12">
          <mxGeometry relative="1" as="geometry" />
        </mxCell>
        <mxCell id="sKK7W5GRqktyaH6itG1t-74" value="has" style="edgeLabel;html=1;align=center;verticalAlign=middle;resizable=0;points=[];" vertex="1" connectable="0" parent="sKK7W5GRqktyaH6itG1t-66">
          <mxGeometry x="-0.24" y="4" relative="1" as="geometry">
            <mxPoint as="offset" />
          </mxGeometry>
        </mxCell>
        <mxCell id="sKK7W5GRqktyaH6itG1t-67" value="" style="edgeStyle=orthogonalEdgeStyle;rounded=0;orthogonalLoop=1;jettySize=auto;html=1;exitX=1;exitY=0.25;exitDx=0;exitDy=0;entryX=0;entryY=0.5;entryDx=0;entryDy=0;metaEdit=0;endArrow=ERone;endFill=0;startArrow=ERmany;startFill=0;" edge="1" parent="1" source="sKK7W5GRqktyaH6itG1t-13" target="4">
          <mxGeometry relative="1" as="geometry" />
        </mxCell>
        <mxCell id="sKK7W5GRqktyaH6itG1t-71" value="has" style="edgeLabel;html=1;align=center;verticalAlign=middle;resizable=0;points=[];" vertex="1" connectable="0" parent="sKK7W5GRqktyaH6itG1t-67">
          <mxGeometry x="-0.0017" y="-1" relative="1" as="geometry">
            <mxPoint as="offset" />
          </mxGeometry>
        </mxCell>
        <mxCell id="sKK7W5GRqktyaH6itG1t-68" value="" style="edgeStyle=orthogonalEdgeStyle;rounded=0;orthogonalLoop=1;jettySize=auto;html=1;exitX=1;exitY=0.75;exitDx=0;exitDy=0;entryX=0;entryY=0.5;entryDx=0;entryDy=0;metaEdit=0;endArrow=ERmany;endFill=0;startArrow=ERmany;startFill=0;" edge="1" parent="1" source="sKK7W5GRqktyaH6itG1t-13" target="5">
          <mxGeometry relative="1" as="geometry" />
        </mxCell>
        <mxCell id="sKK7W5GRqktyaH6itG1t-72" value="has" style="edgeLabel;html=1;align=center;verticalAlign=middle;resizable=0;points=[];" vertex="1" connectable="0" parent="sKK7W5GRqktyaH6itG1t-68">
          <mxGeometry x="-0.0168" y="-1" relative="1" as="geometry">
            <mxPoint as="offset" />
          </mxGeometry>
        </mxCell>
        <mxCell id="sKK7W5GRqktyaH6itG1t-69" value="" style="orthogonalLoop=1;jettySize=auto;html=1;exitX=0.5;exitY=0;exitDx=0;exitDy=0;entryX=0.75;entryY=1;entryDx=0;entryDy=0;metaEdit=0;edgeStyle=orthogonalEdgeStyle;curved=1;endArrow=ERone;endFill=0;startArrow=ERmany;startFill=0;" edge="1" parent="1" source="sKK7W5GRqktyaH6itG1t-13" target="sKK7W5GRqktyaH6itG1t-31">
          <mxGeometry relative="1" as="geometry">
            <Array as="points">
              <mxPoint x="-340" y="220" />
              <mxPoint x="-560" y="220" />
            </Array>
          </mxGeometry>
        </mxCell>
        <mxCell id="sKK7W5GRqktyaH6itG1t-75" value="has" style="edgeLabel;html=1;align=center;verticalAlign=middle;resizable=0;points=[];" vertex="1" connectable="0" parent="sKK7W5GRqktyaH6itG1t-69">
          <mxGeometry x="-0.4235" relative="1" as="geometry">
            <mxPoint as="offset" />
          </mxGeometry>
        </mxCell>
        <mxCell id="sKK7W5GRqktyaH6itG1t-70" value="" style="edgeStyle=orthogonalEdgeStyle;rounded=0;orthogonalLoop=1;jettySize=auto;html=1;exitX=0.75;exitY=1;exitDx=0;exitDy=0;entryX=0.75;entryY=0;entryDx=0;entryDy=0;metaEdit=0;endArrow=ERone;endFill=0;startArrow=ERmany;startFill=0;" edge="1" parent="1" source="sKK7W5GRqktyaH6itG1t-13" target="sKK7W5GRqktyaH6itG1t-61">
          <mxGeometry relative="1" as="geometry">
            <Array as="points">
              <mxPoint x="-310" y="690" />
              <mxPoint x="420" y="690" />
              <mxPoint x="420" y="-360" />
              <mxPoint x="40" y="-360" />
            </Array>
          </mxGeometry>
        </mxCell>
        <mxCell id="sKK7W5GRqktyaH6itG1t-73" value="has" style="edgeLabel;html=1;align=center;verticalAlign=middle;resizable=0;points=[];" vertex="1" connectable="0" parent="sKK7W5GRqktyaH6itG1t-70">
          <mxGeometry x="-0.9008" relative="1" as="geometry">
            <mxPoint as="offset" />
          </mxGeometry>
        </mxCell>
        <mxCell id="sKK7W5GRqktyaH6itG1t-13" value="&lt;b&gt;VALUE&lt;/b&gt;" style="rounded=0;whiteSpace=wrap;html=1;" vertex="1" parent="1">
          <mxGeometry x="-400" y="390" width="120" height="60" as="geometry" />
        </mxCell>
        <mxCell id="sKK7W5GRqktyaH6itG1t-82" style="edgeStyle=orthogonalEdgeStyle;rounded=0;orthogonalLoop=1;jettySize=auto;html=1;exitX=0;exitY=0.25;exitDx=0;exitDy=0;entryX=0.75;entryY=1;entryDx=0;entryDy=0;startArrow=ERone;startFill=0;endArrow=ERone;endFill=0;" edge="1" parent="1" source="sKK7W5GRqktyaH6itG1t-28" target="sKK7W5GRqktyaH6itG1t-35">
          <mxGeometry relative="1" as="geometry">
            <Array as="points">
              <mxPoint x="-800" y="-95" />
              <mxPoint x="-800" y="810" />
              <mxPoint x="350" y="810" />
            </Array>
          </mxGeometry>
        </mxCell>
        <mxCell id="sKK7W5GRqktyaH6itG1t-83" value="has" style="edgeLabel;html=1;align=center;verticalAlign=middle;resizable=0;points=[];" vertex="1" connectable="0" parent="sKK7W5GRqktyaH6itG1t-82">
          <mxGeometry x="0.6038" relative="1" as="geometry">
            <mxPoint as="offset" />
          </mxGeometry>
        </mxCell>
        <mxCell id="sKK7W5GRqktyaH6itG1t-28" value="&lt;b&gt;GAME SPACE&lt;/b&gt;" style="rounded=0;whiteSpace=wrap;html=1;" vertex="1" parent="1">
          <mxGeometry x="-520" y="-110" width="120" height="60" as="geometry" />
        </mxCell>
        <mxCell id="sKK7W5GRqktyaH6itG1t-29" value="&lt;b&gt;AGENT&lt;/b&gt;" style="rounded=0;whiteSpace=wrap;html=1;" vertex="1" parent="1">
          <mxGeometry y="-160" width="120" height="60" as="geometry" />
        </mxCell>
        <mxCell id="sKK7W5GRqktyaH6itG1t-44" style="edgeStyle=orthogonalEdgeStyle;orthogonalLoop=1;jettySize=auto;html=1;exitX=0.25;exitY=0;exitDx=0;exitDy=0;entryX=0.75;entryY=1;entryDx=0;entryDy=0;strokeColor=none;curved=1;" edge="1" parent="1" source="sKK7W5GRqktyaH6itG1t-30" target="sKK7W5GRqktyaH6itG1t-28">
          <mxGeometry relative="1" as="geometry" />
        </mxCell>
        <mxCell id="sKK7W5GRqktyaH6itG1t-30" value="&lt;b&gt;DECK&lt;/b&gt;" style="rounded=0;whiteSpace=wrap;html=1;" vertex="1" parent="1">
          <mxGeometry x="-440" y="130" width="120" height="60" as="geometry" />
        </mxCell>
        <mxCell id="sKK7W5GRqktyaH6itG1t-47" style="orthogonalLoop=1;jettySize=auto;html=1;exitX=0.25;exitY=0;exitDx=0;exitDy=0;entryX=0.25;entryY=1;entryDx=0;entryDy=0;startArrow=ERmany;startFill=0;endArrow=ERone;endFill=0;" edge="1" parent="1" source="sKK7W5GRqktyaH6itG1t-31" target="sKK7W5GRqktyaH6itG1t-28">
          <mxGeometry relative="1" as="geometry" />
        </mxCell>
        <mxCell id="sKK7W5GRqktyaH6itG1t-48" value="has" style="edgeLabel;html=1;align=center;verticalAlign=middle;resizable=0;points=[];" vertex="1" connectable="0" parent="sKK7W5GRqktyaH6itG1t-47">
          <mxGeometry x="0.0353" y="2" relative="1" as="geometry">
            <mxPoint as="offset" />
          </mxGeometry>
        </mxCell>
        <mxCell id="sKK7W5GRqktyaH6itG1t-31" value="&lt;b&gt;POT&lt;/b&gt;" style="rounded=0;whiteSpace=wrap;html=1;" vertex="1" parent="1">
          <mxGeometry x="-650" y="40" width="120" height="60" as="geometry" />
        </mxCell>
        <mxCell id="sKK7W5GRqktyaH6itG1t-80" style="edgeStyle=orthogonalEdgeStyle;rounded=0;orthogonalLoop=1;jettySize=auto;html=1;exitX=0.25;exitY=1;exitDx=0;exitDy=0;entryX=1;entryY=0.25;entryDx=0;entryDy=0;startArrow=ERmany;startFill=0;endArrow=ERone;endFill=0;" edge="1" parent="1" source="sKK7W5GRqktyaH6itG1t-35" target="5">
          <mxGeometry relative="1" as="geometry" />
        </mxCell>
        <mxCell id="sKK7W5GRqktyaH6itG1t-81" value="has" style="edgeLabel;html=1;align=center;verticalAlign=middle;resizable=0;points=[];" vertex="1" connectable="0" parent="sKK7W5GRqktyaH6itG1t-80">
          <mxGeometry x="-0.2135" y="-4" relative="1" as="geometry">
            <mxPoint as="offset" />
          </mxGeometry>
        </mxCell>
        <mxCell id="sKK7W5GRqktyaH6itG1t-87" style="edgeStyle=orthogonalEdgeStyle;rounded=0;orthogonalLoop=1;jettySize=auto;html=1;exitX=1;exitY=0.5;exitDx=0;exitDy=0;entryX=0.5;entryY=0;entryDx=0;entryDy=0;startArrow=ERone;startFill=0;endArrow=ERone;endFill=0;" edge="1" parent="1" source="sKK7W5GRqktyaH6itG1t-35" target="sKK7W5GRqktyaH6itG1t-28">
          <mxGeometry relative="1" as="geometry">
            <Array as="points">
              <mxPoint x="490" y="450" />
              <mxPoint x="490" y="-200" />
              <mxPoint x="-460" y="-200" />
            </Array>
          </mxGeometry>
        </mxCell>
        <mxCell id="sKK7W5GRqktyaH6itG1t-88" value="has" style="edgeLabel;html=1;align=center;verticalAlign=middle;resizable=0;points=[];" vertex="1" connectable="0" parent="sKK7W5GRqktyaH6itG1t-87">
          <mxGeometry x="-0.61" relative="1" as="geometry">
            <mxPoint as="offset" />
          </mxGeometry>
        </mxCell>
        <mxCell id="sKK7W5GRqktyaH6itG1t-35" value="&lt;b&gt;RANK&lt;/b&gt;" style="rounded=0;whiteSpace=wrap;html=1;" vertex="1" parent="1">
          <mxGeometry x="260" y="420" width="120" height="60" as="geometry" />
        </mxCell>
        <mxCell id="sKK7W5GRqktyaH6itG1t-45" style="orthogonalLoop=1;jettySize=auto;html=1;exitX=0.25;exitY=0;exitDx=0;exitDy=0;entryX=0.5;entryY=1;entryDx=0;entryDy=0;curved=1;startArrow=ERmany;startFill=0;endArrow=ERone;endFill=0;" edge="1" parent="1" source="sKK7W5GRqktyaH6itG1t-30" target="sKK7W5GRqktyaH6itG1t-28">
          <mxGeometry relative="1" as="geometry">
            <mxPoint x="-510" y="85" as="sourcePoint" />
            <mxPoint x="-450" y="-40" as="targetPoint" />
          </mxGeometry>
        </mxCell>
        <mxCell id="sKK7W5GRqktyaH6itG1t-46" value="has" style="edgeLabel;html=1;align=center;verticalAlign=middle;resizable=0;points=[];" vertex="1" connectable="0" parent="sKK7W5GRqktyaH6itG1t-45">
          <mxGeometry x="-0.1745" y="-1" relative="1" as="geometry">
            <mxPoint as="offset" />
          </mxGeometry>
        </mxCell>
        <mxCell id="sKK7W5GRqktyaH6itG1t-55" value="&lt;b&gt;CAGE&lt;/b&gt;" style="whiteSpace=wrap;html=1;" vertex="1" parent="1">
          <mxGeometry x="-340" y="-330" width="120" height="60" as="geometry" />
        </mxCell>
        <mxCell id="sKK7W5GRqktyaH6itG1t-56" value="Questions:&lt;br&gt;&lt;ul&gt;&lt;li&gt;can you get chips from table or just cage?&lt;/li&gt;&lt;/ul&gt;" style="whiteSpace=wrap;html=1;align=left;" vertex="1" parent="1">
          <mxGeometry x="120" y="-500" width="360" height="100" as="geometry" />
        </mxCell>
        <mxCell id="sKK7W5GRqktyaH6itG1t-57" style="orthogonalLoop=1;jettySize=auto;html=1;exitX=0.25;exitY=0;exitDx=0;exitDy=0;entryX=0.558;entryY=0.967;entryDx=0;entryDy=0;entryPerimeter=0;curved=1;startArrow=ERmany;startFill=0;endArrow=ERone;endFill=0;" edge="1" parent="1" source="2" target="sKK7W5GRqktyaH6itG1t-55">
          <mxGeometry relative="1" as="geometry">
            <Array as="points">
              <mxPoint x="-90" y="-140" />
            </Array>
          </mxGeometry>
        </mxCell>
        <mxCell id="sKK7W5GRqktyaH6itG1t-58" value="has" style="edgeLabel;html=1;align=center;verticalAlign=middle;resizable=0;points=[];" vertex="1" connectable="0" parent="sKK7W5GRqktyaH6itG1t-57">
          <mxGeometry x="0.1433" y="42" relative="1" as="geometry">
            <mxPoint as="offset" />
          </mxGeometry>
        </mxCell>
        <mxCell id="sKK7W5GRqktyaH6itG1t-62" style="orthogonalLoop=1;jettySize=auto;html=1;exitX=0;exitY=0.5;exitDx=0;exitDy=0;entryX=1;entryY=0.5;entryDx=0;entryDy=0;curved=1;startArrow=ERmany;startFill=0;endArrow=ERone;endFill=0;" edge="1" parent="1" source="sKK7W5GRqktyaH6itG1t-61" target="sKK7W5GRqktyaH6itG1t-55">
          <mxGeometry relative="1" as="geometry" />
        </mxCell>
        <mxCell id="sKK7W5GRqktyaH6itG1t-63" value="has" style="edgeLabel;html=1;align=center;verticalAlign=middle;resizable=0;points=[];" vertex="1" connectable="0" parent="sKK7W5GRqktyaH6itG1t-62">
          <mxGeometry x="0.0333" y="1" relative="1" as="geometry">
            <mxPoint as="offset" />
          </mxGeometry>
        </mxCell>
        <mxCell id="sKK7W5GRqktyaH6itG1t-61" value="&lt;b&gt;MONETARY NOTE&lt;/b&gt;" style="whiteSpace=wrap;html=1;" vertex="1" parent="1">
          <mxGeometry x="-50" y="-340" width="120" height="60" as="geometry" />
        </mxCell>
        <mxCell id="sKK7W5GRqktyaH6itG1t-64" style="edgeStyle=orthogonalEdgeStyle;rounded=0;orthogonalLoop=1;jettySize=auto;html=1;exitX=1;exitY=0.5;exitDx=0;exitDy=0;entryX=0.75;entryY=0;entryDx=0;entryDy=0;endArrow=ERone;endFill=0;startArrow=ERmany;startFill=0;" edge="1" parent="1" source="sKK7W5GRqktyaH6itG1t-61" target="sKK7W5GRqktyaH6itG1t-29">
          <mxGeometry relative="1" as="geometry" />
        </mxCell>
        <mxCell id="sKK7W5GRqktyaH6itG1t-65" value="has" style="edgeLabel;html=1;align=center;verticalAlign=middle;resizable=0;points=[];" vertex="1" connectable="0" parent="sKK7W5GRqktyaH6itG1t-64">
          <mxGeometry x="0.0314" y="-1" relative="1" as="geometry">
            <mxPoint as="offset" />
          </mxGeometry>
        </mxCell>
        <mxCell id="sKK7W5GRqktyaH6itG1t-76" style="orthogonalLoop=1;jettySize=auto;html=1;exitX=0.75;exitY=0;exitDx=0;exitDy=0;entryX=0.99;entryY=0.373;entryDx=0;entryDy=0;entryPerimeter=0;curved=1;" edge="1" parent="1" source="sKK7W5GRqktyaH6itG1t-35" target="3">
          <mxGeometry relative="1" as="geometry">
            <Array as="points">
              <mxPoint x="390" y="220" />
            </Array>
          </mxGeometry>
        </mxCell>
        <mxCell id="sKK7W5GRqktyaH6itG1t-77" value="has" style="edgeLabel;html=1;align=center;verticalAlign=middle;resizable=0;points=[];" vertex="1" connectable="0" parent="sKK7W5GRqktyaH6itG1t-76">
          <mxGeometry x="0.0001" y="22" relative="1" as="geometry">
            <mxPoint as="offset" />
          </mxGeometry>
        </mxCell>
        <mxCell id="sKK7W5GRqktyaH6itG1t-78" style="rounded=0;orthogonalLoop=1;jettySize=auto;html=1;exitX=0;exitY=0.25;exitDx=0;exitDy=0;entryX=1;entryY=0.387;entryDx=0;entryDy=0;entryPerimeter=0;endArrow=ERone;endFill=0;startArrow=ERone;startFill=0;" edge="1" parent="1" source="sKK7W5GRqktyaH6itG1t-35" target="4">
          <mxGeometry relative="1" as="geometry" />
        </mxCell>
        <mxCell id="sKK7W5GRqktyaH6itG1t-79" value="has" style="edgeLabel;html=1;align=center;verticalAlign=middle;resizable=0;points=[];" vertex="1" connectable="0" parent="sKK7W5GRqktyaH6itG1t-78">
          <mxGeometry x="0.0114" y="-2" relative="1" as="geometry">
            <mxPoint as="offset" />
          </mxGeometry>
        </mxCell>
      </root>
    </mxGraphModel>
  </diagram>
</mxfile>
